# xmcd CD database file
#
# Track frame offsets:
#	150
#	22862
#	44200
#	60657
#	78097
#	97815
#
# Disc length: 2611 seconds
#
# Revision: 2
# Processed by: cddbd v1.5.1PL0 Copyright (c) Steve Scherf et al.
# Submitted via: CDex 1.51
#
DISCID=3d0a3106
DTITLE=姫神 - 北天幻想
DYEAR=1993
DGENRE=New Age
TTITLE0=大地炎ゆ〜秀衡のテーマ
TTITLE1=月のあかりはしみわたり
TTITLE2=平泉 -空-
TTITLE3=白鳥伝説
TTITLE4=遠い音
TTITLE5=組曲「北天幻想」 序〜北狼の群れ〜毛越寺〜北天を翔ける〜常夜
EXTD=YEAR: 1993
EXTT0=
EXTT1=
EXTT2=
EXTT3=
EXTT4=
EXTT5=
PLAYORDER=
